<?xml version="1.0" standalone="no"?>
<!DOCTYPE svg PUBLIC "-//W3C//DTD SVG 20010904//EN"
 "http://www.w3.org/TR/2001/REC-SVG-20010904/DTD/svg10.dtd">
<svg version="1.0" xmlns="http://www.w3.org/2000/svg"
 width="128.000000pt" height="128.000000pt" viewBox="0 0 128.000000 128.000000"
 preserveAspectRatio="xMidYMid meet">
<metadata>
Created by potrace 1.14, written by Peter Selinger 2001-2017
</metadata>
<g transform="translate(0.000000,128.000000) scale(0.100000,-0.100000)"
fill="#000000" stroke="none">
<path d="M549 1216 c-3 -3 -18 -7 -35 -10 -97 -17 -206 -78 -291 -163 -63 -64
-131 -187 -148 -270 -76 -362 179 -696 540 -709 199 -7 351 63 489 227 33 39
85 152 100 218 15 62 16 204 2 260 -37 154 -133 286 -267 365 -99 59 -163 78
-280 82 -58 2 -108 2 -110 0z"/>
</g>
</svg>
